# xmcd CD database file
#
# Track frame offsets:
#	150
#	19495
#	34868
#	48599
#	64894
#	82465
#	98453
#	119789
#	136990
#	156896
#	174296
#	190469
#
# Disc length: 2698 seconds
#
# Revision: 0
# Processed by: cddbd v1.5.2PL0 Copyright (c) Steve Scherf et al.
# Submitted via: CDex 1.51
#
DISCID=ae0a880c
DTITLE=Flying Pickets - everyday
DYEAR=2004
DGENRE=Blues
TTITLE0=Everyday is a winding road
TTITLE1=Fast car
TTITLE2=Love rears its ugly head
TTITLE3=Do it
TTITLE4=Everyboady's got to learn sometime
TTITLE5=Chapel on a cloud
TTITLE6=Roxanne
TTITLE7=Perfect day
TTITLE8=I keep forgettin'
TTITLE9=Here comes the flood
TTITLE10=Long train runnin'
TTITLE11=That which can't be explained
EXTD=YEAR: 2004
EXTT0=
EXTT1=
EXTT2=
EXTT3=
EXTT4=
EXTT5=
EXTT6=
EXTT7=
EXTT8=
EXTT9=
EXTT10=
EXTT11=
PLAYORDER=
